<svg xmlns="http://www.w3.org/2000/svg" viewBox="0 0 12.7 12.7" width="256" height="256">
	<path d="M5.0390625.95117188C2.5493319 1.5558637.79296864 3.7874988.79296875 6.3496094c7e-7 3.0654976 2.49114295 5.5566406 5.55664065 5.5566406 3.065495-.000004 5.5566396-2.4911456 5.5566406-5.5566406.000002-.3267764-.02862-.6528992-.08594-.9746094l-.521484.09375c.05186.2910712.07813.5852044.07813.8808594-.000001 2.7795124-2.2478312 5.0273406-5.0273436 5.0273436-2.7795148 0-5.0273431-2.2478288-5.0273438-5.0273436-1e-7-2.3207589 1.5865998-4.337036 3.8417969-4.8847656zM7.6621094.95117188l-.125.51367192C8.6697779 1.739997 9.6714421 2.3997572 10.371094 3.3320312L10.794922 3.015625C10.02169 1.9853059 8.913898 1.2552624 7.6621094.95117188z"></path>
	<path d="M1.5878906 3.7050781v.5273438h.9492188l.6386718.640625V5.1015625L2.5625 5.3046875A.26460981.26460981 0 0 0 2.4101562 5.6738281l.1777344.359375-.050781.052734H1.0585938V6.6152344H2.6464844A.26460981.26460981 0 0 0 2.8320312 6.5371094L3.0976562 6.2734375A.26460981.26460981 0 0 0 3.1464844 5.9667969L3.0195312 5.7109375 3.5234375 5.5429688A.26460981.26460981 0 0 0 3.7050781 5.2910156V4.7617188A.26460981.26460981 0 0 0 3.6269531 4.5761719L2.8320312 3.78125A.26460981.26460981 0 0 0 2.6464844 3.7050781zM9.2597656 8.4667969a.26460981.26460981 0 0 0-.1855468.078125l-.1875.1855469H6.3496094a.26460981.26460981 0 0 0-.1875.078125L5.8984375 9.0742188A.26460981.26460981 0 0 0 5.8652344 9.40625l.5292968.794922a.26460981.26460981 0 0 0 .15625.109375L7.5566406 10.5625 8.5722656 11.324219 8.890625 10.900391 7.8320312 10.107422A.26460981.26460981 0 0 0 7.7363281 10.0625L6.7773438 9.8222656 6.4257812 9.2949219 6.4589844 9.2597656h2.5371094a.26460981.26460981 0 0 0 .1875-.076172l.1855468-.1875H11.113281V8.4667969zM5.5410156 3.7050781A.26460981.26460981 0 0 0 5.3984375 3.7578125L4.3398438 4.5507812a.26460981.26460981 0 0 0 .011719.4316407l.7929687.5292969a.26460981.26460981 0 0 0 .2109376.037109l.9375-.234375L7.25 6.0332031A.26460981.26460981 0 0 0 7.34375 6.078125L8.4023438 6.3417969A.26460981.26460981 0 0 0 8.7304688 6.0859375V5.2910156a.26460981.26460981 0 0 0-.1796876-.25L8.0859375 4.8847656 8.421875 4.3808594A.26460981.26460981 0 0 0 8.2011719 3.96875H6.6484375L5.6210938 3.7128906a.26460981.26460981 0 0 0-.080078-.00781zm.072266.5507813l.9375.234375a.26460981.26460981 0 0 0 .064453.00781h1.09375L7.453125 4.8808594A.26460981.26460981 0 0 0 7.5898438 5.2773438L8.2011719 5.4824219V5.7460938L7.5234375 5.5761719 6.5078125 4.8144531A.26460981.26460981 0 0 0 6.2851562 4.7695312L5.3417969 5.0058594 4.9550781 4.75zM10.583984 2.9101562c-.8736177 0-1.5878903.7142726-1.5878902 1.5878907 0 .6394097.3826069 1.1540913.7382812 1.5097656.355674.3556743.712891.5683594.712891.5683594a.26460978.26460978 0 0 0 .271484 0c0 0 .357216-.2126851.712891-.5683594.355674-.3556743.738281-.8703559.738281-1.5097656 0-.8736182-.712319-1.5878907-1.585938-1.5878907zm0 .5292969c.587636 0 1.058594.4709585 1.058594 1.0585938 0 .4189236-.2782.8289816-.583984 1.1347656-.237462.2374618-.380639.3195291-.47461.3808594-.09359-.06105-.236685-.1429354-.474609-.3808594-.305784-.305784-.5839844-.715842-.5839844-1.1347656 0-.5876353.4709585-1.0585938 1.0585934-1.0585938z"></path>
	<path d="M10.552734 3.7011719A.26460981.26460981 0 0 0 10.318359 3.96875v.5292969a.26460981.26460981 0 0 0 .07813.1875l.263672.2636719a.26460981.26460981 0 1 0 .375-.3730469l-.1875-.1875V3.96875A.26460981.26460981 0 0 0 10.552734 3.7011719zM6.3496094 0C5.4759913 0 4.7617187.71427251 4.7617188 1.5878906c0 .6394097.38456 1.1540913.7402343 1.5097656.3556743.3556744.7128907.5683594.7128907.5683594a.26460978.26460978 0 0 0 .2714843 0c0 0 .3572163-.212685.7128907-.5683594C7.5548931 2.7419819 7.9375001 2.2273004 7.9375 1.5878906 7.9374999.71427255 7.2232275 0 6.3496094 0zm0 .52929688c.5876353-1e-8 1.0585936.47095842 1.0585937 1.05859372 1e-7.4189236-.2782003.8289816-.5839843 1.1347656C6.5862948 2.9605802 6.4432048 3.0424657 6.3496094 3.1035156 6.2556392 3.0421854 6.1124618 2.960118 5.875 2.7226562 5.569216 2.4168722 5.2910156 2.0068142 5.2910156 1.5878906c0-.5876352.4709585-1.05859372 1.0585938-1.05859372z"></path>
	<path d="M6.3457031.7890625A.26460981.26460981 0 0 0 6.0859375 1.0585938v.5292968a.26460981.26460981 0 0 0 .076172.1875l.265625.2636719a.26460981.26460981 0 1 0 .3730468-.375L6.6152344 1.4785156V1.0585938A.26460981.26460981 0 0 0 6.3457031.7890625zM4.2324219 6.6152344c-.8736181 0-1.5859375.7123194-1.5859375 1.5859375 0 .6394098.3826069 1.1560444.7382812 1.5117187.3556743.3556744.7128906.5683594.7128906.5683594a.26460978.26460978 0 0 0 .2714844 0c0 0 .3572162-.212685.7128906-.5683594.3556745-.3556743.7382813-.8723088.7382813-1.5117187 0-.8736182-.7142723-1.5859375-1.5878906-1.5859375zm0 .5292968c.5876356 0 1.0585937.4690054 1.0585937 1.0566407 0 .4189238-.2782003.8309347-.5839844 1.1367187C4.4697022 9.5752196 4.3284523 9.6573395 4.234375 9.71875 4.1407796 9.6577 3.9976896 9.5758146 3.7597656 9.3378906 3.4539816 9.0321066 3.1757812 8.6200957 3.1757812 8.2011719c0-.5876353.4690054-1.0566407 1.0566407-1.0566407z"></path>
	<path d="M 4.2285156,7.4042969 A 0.26460981,0.26460981 0 0 0 3.96875,7.6738281 v 0.5273438 a 0.26460981,0.26460981 0 0 0 0.078125,0.1875 l 0.2636719,0.265625 a 0.26516504,0.26516504 0 1 0 0.375,-0.375 l -0.1875,-0.1875 V 7.6738281 A 0.26460981,0.26460981 0 0 0 4.2285156,7.4042969 Z"></path>
</svg>